<svg width="32" height="32" viewBox="0 0 32 32" fill="none" xmlns="http://www.w3.org/2000/svg">
    <path fill-rule="evenodd" clip-rule="evenodd" d="M 16.023438 6.667969 C 9.683594 6.667969 4.894531 10.863281 4.894531 15.605469 C 4.894531 17.296875 5.523438 18.902344 6.589844 20.28125 C 6.742188 20.476562 6.820312 20.714844 6.820312 20.960938 C 6.820312 22.132812 6.503906 23.265625 6.109375 24.285156 C 5.863281 24.925781 5.570312 25.5625 5.289062 26.15625 C 7.738281 25.914062 9.347656 25.167969 10.308594 24.082031 C 10.609375 23.738281 11.089844 23.617188 11.519531 23.773438 C 12.867188 24.257812 14.367188 24.480469 16.003906 24.480469 C 22.351562 24.480469 27.113281 20.339844 27.113281 15.605469 C 27.109375 10.859375 22.359375 6.667969 16.023438 6.667969 Z M 2.671875 15.605469 C 2.671875 9.246094 8.890625 4.445312 16.023438 4.445312 C 23.164062 4.445312 29.332031 9.25 29.332031 15.605469 C 29.332031 21.972656 23.128906 26.703125 16.003906 26.703125 C 14.421875 26.703125 12.890625 26.519531 11.445312 26.085938 C 9.773438 27.605469 7.339844 28.332031 4.347656 28.441406 C 3.246094 28.484375 2.28125 27.335938 2.820312 26.179688 C 2.925781 25.953125 3.03125 25.730469 3.136719 25.511719 C 3.457031 24.835938 3.773438 24.171875 4.039062 23.484375 C 4.332031 22.714844 4.535156 21.992188 4.585938 21.3125 C 3.410156 19.671875 2.671875 17.71875 2.671875 15.605469 Z M 2.671875 15.605469 " fill="#000000"/>
</svg>