<svg width="32" height="32" viewBox="0 0 32 32" fill="none" xmlns="http://www.w3.org/2000/svg">
    <path fill-rule="evenodd" clip-rule="evenodd" d="M 17.332031 2.3125 C 17.777344 2.398438 18.222656 2.578125 18.667969 2.933594 C 19.378906 3.464844 19.644531 4.179688 19.910156 5.15625 C 20 5.421875 20.089844 5.6875 20.265625 6.042969 C 20.621094 6.222656 20.890625 6.3125 21.15625 6.488281 C 21.421875 6.398438 21.777344 6.3125 21.957031 6.222656 C 23.554688 5.511719 24.890625 5.511719 26.042969 6.667969 C 26.132812 6.753906 26.222656 6.84375 26.3125 7.023438 L 27.023438 7.910156 C 27.199219 8.179688 27.289062 8.265625 27.378906 8.445312 C 28.179688 9.777344 27.820312 11.023438 26.84375 12.355469 C 26.667969 12.535156 26.488281 12.890625 26.398438 13.15625 C 26.488281 13.511719 26.578125 13.777344 26.667969 14.132812 C 26.933594 14.3125 27.199219 14.488281 27.464844 14.667969 C 28.355469 15.109375 28.976562 15.644531 29.332031 16.355469 C 29.601562 16.800781 29.601562 17.332031 29.601562 17.777344 C 29.601562 18.042969 29.511719 18.222656 29.511719 18.488281 L 29.246094 19.644531 C 29.15625 20 29.15625 20.089844 29.066406 20.355469 C 28.890625 20.800781 28.621094 21.246094 28.179688 21.511719 C 27.464844 22.042969 26.753906 22.222656 25.6875 22.222656 C 25.421875 22.222656 25.15625 22.3125 24.800781 22.3125 C 24.621094 22.578125 24.355469 22.84375 24.179688 23.109375 C 24.179688 23.464844 24.179688 23.734375 24.265625 24 C 24.445312 24.976562 24.535156 25.777344 24.089844 26.578125 C 23.820312 27.023438 23.554688 27.464844 23.109375 27.734375 C 22.933594 27.910156 22.753906 27.910156 22.488281 28.089844 L 21.421875 28.621094 C 21.15625 28.800781 20.976562 28.800781 20.710938 28.890625 C 20.265625 29.066406 19.734375 29.066406 19.199219 28.976562 C 18.3125 28.800781 17.777344 28.355469 17.066406 27.554688 C 16.890625 27.378906 16.621094 27.109375 16.355469 26.933594 C 16.179688 26.933594 16 26.933594 15.820312 26.933594 C 15.644531 26.933594 15.464844 26.933594 15.289062 26.933594 C 15.023438 27.109375 14.753906 27.378906 14.578125 27.554688 C 13.957031 28.355469 13.332031 28.800781 12.445312 28.976562 C 11.910156 29.066406 11.464844 29.066406 10.933594 28.890625 C 10.667969 28.800781 10.578125 28.710938 10.222656 28.621094 L 9.15625 28.089844 C 9.066406 28.089844 8.976562 28 8.976562 28 C 7.464844 27.199219 7.023438 25.867188 7.464844 24.089844 C 7.554688 23.820312 7.554688 23.554688 7.554688 23.199219 C 7.289062 22.933594 7.109375 22.667969 6.933594 22.398438 C 6.667969 22.3125 6.3125 22.3125 6.042969 22.3125 C 4.976562 22.3125 4.265625 22.132812 3.554688 21.601562 C 3.109375 21.246094 2.84375 20.890625 2.667969 20.445312 C 2.578125 20.179688 2.488281 20.089844 2.488281 19.734375 L 2.222656 18.578125 C 2.132812 18.222656 2.132812 18.042969 2.132812 17.777344 C 2.132812 17.246094 2.222656 16.710938 2.488281 16.265625 C 2.84375 15.554688 3.464844 15.109375 4.355469 14.667969 C 4.621094 14.578125 4.890625 14.398438 5.15625 14.132812 C 5.246094 13.777344 5.332031 13.511719 5.421875 13.15625 C 5.246094 12.890625 5.15625 12.535156 4.976562 12.355469 C 4.089844 10.933594 3.734375 9.777344 4.535156 8.445312 C 4.621094 8.265625 4.710938 8.089844 4.890625 7.910156 L 5.601562 7.023438 C 5.6875 6.84375 5.777344 6.84375 5.867188 6.667969 C 6.933594 5.511719 8.355469 5.421875 9.957031 6.222656 C 10.222656 6.3125 10.488281 6.398438 10.753906 6.488281 C 11.023438 6.3125 11.378906 6.132812 11.644531 6.042969 C 11.820312 5.777344 11.910156 5.421875 12 5.15625 C 12.265625 4.179688 12.535156 3.464844 13.246094 2.933594 C 13.6875 2.578125 14.132812 2.398438 14.578125 2.3125 C 14.753906 2.3125 14.933594 2.3125 15.109375 2.222656 L 16.445312 2.222656 C 16.890625 2.3125 17.066406 2.3125 17.332031 2.3125 Z M 16.710938 4.535156 L 15.464844 4.535156 C 14.933594 4.535156 14.578125 4.535156 14.3125 5.6875 C 14.132812 6.3125 13.777344 7.109375 13.332031 7.820312 C 12.621094 8.089844 11.910156 8.355469 11.289062 8.800781 C 10.488281 8.710938 9.601562 8.445312 9.066406 8.179688 C 8 7.734375 7.820312 8 7.464844 8.445312 L 6.753906 9.332031 C 6.398438 9.777344 6.222656 9.957031 6.933594 10.933594 C 7.289062 11.464844 7.734375 12.265625 8 13.066406 C 7.734375 13.777344 7.554688 14.488281 7.464844 15.199219 C 6.933594 15.820312 6.132812 16.355469 5.601562 16.621094 C 4.535156 17.15625 4.621094 17.421875 4.710938 17.957031 L 4.976562 19.109375 C 5.066406 19.644531 5.15625 19.910156 6.3125 20 C 6.933594 20 7.820312 20.179688 8.621094 20.445312 C 8.976562 21.066406 9.511719 21.6875 10.042969 22.222656 C 10.132812 23.023438 10.132812 23.910156 9.957031 24.535156 C 9.6875 25.6875 9.957031 25.777344 10.488281 26.042969 L 11.554688 26.578125 C 12.089844 26.84375 12.355469 26.933594 13.066406 26.042969 C 13.511719 25.511719 14.132812 24.976562 14.84375 24.535156 C 15.199219 24.621094 15.554688 24.621094 15.910156 24.621094 C 16.265625 24.621094 16.621094 24.621094 16.976562 24.535156 C 17.6875 24.976562 18.398438 25.511719 18.753906 26.042969 C 19.554688 26.933594 19.734375 26.84375 20.265625 26.578125 L 21.332031 26.042969 C 21.867188 25.777344 22.132812 25.6875 21.867188 24.535156 C 21.6875 23.910156 21.6875 23.023438 21.777344 22.222656 C 22.3125 21.6875 22.84375 21.066406 23.199219 20.445312 C 24 20.179688 24.800781 20 25.511719 20 C 26.667969 20 26.753906 19.734375 26.84375 19.109375 L 27.109375 17.957031 C 27.199219 17.421875 27.289062 17.15625 26.222656 16.621094 C 25.601562 16.355469 24.890625 15.820312 24.355469 15.199219 C 24.265625 14.488281 24.089844 13.6875 23.820312 13.066406 C 24.089844 12.265625 24.535156 11.464844 24.890625 10.933594 C 25.601562 9.957031 25.421875 9.777344 25.066406 9.332031 L 24.355469 8.445312 C 24.179688 8 24 7.734375 22.933594 8.265625 C 22.3125 8.535156 21.511719 8.800781 20.710938 8.890625 C 20.089844 8.445312 19.378906 8.179688 18.667969 7.910156 C 18.222656 7.199219 17.867188 6.398438 17.6875 5.777344 C 17.421875 4.621094 17.15625 4.535156 16.710938 4.535156 Z M 16 10.84375 C 18.84375 10.84375 21.15625 13.15625 21.15625 16 C 21.15625 18.84375 18.84375 21.15625 16 21.15625 C 13.15625 21.15625 10.84375 18.84375 10.84375 16 C 10.84375 13.15625 13.15625 10.84375 16 10.84375 Z M 16 13.15625 C 14.398438 13.15625 13.15625 14.398438 13.15625 16 C 13.15625 17.601562 14.398438 18.84375 16 18.84375 C 17.601562 18.84375 18.84375 17.601562 18.84375 16 C 18.84375 14.398438 17.601562 13.15625 16 13.15625 Z M 16 13.15625 " fill="#000000"/>
</svg>