<svg width="32" height="32" viewBox="0 0 32 32" fill="none" xmlns="http://www.w3.org/2000/svg">
    <path fill-rule="evenodd" clip-rule="evenodd" d="M 16 6.222656 C 18.453125 6.222656 20.445312 8.210938 20.445312 10.664062 C 20.445312 13.121094 18.453125 15.109375 16 15.109375 C 13.546875 15.109375 11.554688 13.121094 11.554688 10.664062 C 11.554688 8.210938 13.546875 6.222656 16 6.222656 Z M 16 8.441406 C 14.773438 8.441406 13.777344 9.4375 13.777344 10.664062 C 13.777344 11.894531 14.773438 12.886719 16 12.886719 C 17.226562 12.886719 18.222656 11.894531 18.222656 10.664062 C 18.222656 9.4375 17.226562 8.441406 16 8.441406 Z M 5.378906 11.363281 C 5.378906 9.171875 7.15625 7.394531 9.347656 7.394531 C 9.960938 7.394531 10.457031 7.894531 10.457031 8.507812 C 10.457031 9.121094 9.960938 9.617188 9.347656 9.617188 L 9.214844 9.621094 C 8.3125 9.6875 7.601562 10.441406 7.601562 11.363281 C 7.601562 12.328125 8.382812 13.109375 9.347656 13.109375 L 9.460938 13.117188 C 10.019531 13.171875 10.457031 13.644531 10.457031 14.222656 C 10.457031 14.835938 9.960938 15.332031 9.347656 15.332031 C 7.15625 15.332031 5.378906 13.554688 5.378906 11.363281 Z M 1.746094 21.363281 C 1.746094 18.992188 3.734375 17.109375 6.855469 17.109375 C 7.472656 17.109375 7.96875 17.609375 7.96875 18.222656 C 7.96875 18.835938 7.472656 19.332031 6.855469 19.332031 C 4.9375 19.332031 3.96875 20.246094 3.96875 21.363281 C 3.96875 21.945312 4.347656 22.253906 4.855469 22.253906 L 5.714844 22.253906 L 5.828125 22.257812 C 6.386719 22.316406 6.824219 22.789062 6.824219 23.363281 C 6.824219 23.980469 6.328125 24.476562 5.714844 24.476562 L 4.855469 24.476562 L 4.691406 24.472656 C 3.113281 24.394531 1.746094 23.214844 1.746094 21.363281 Z M 30.253906 21.363281 C 30.253906 18.992188 28.265625 17.109375 25.144531 17.109375 C 24.527344 17.109375 24.03125 17.609375 24.03125 18.222656 C 24.03125 18.835938 24.527344 19.332031 25.144531 19.332031 C 27.0625 19.332031 28.03125 20.246094 28.03125 21.363281 C 28.03125 21.945312 27.652344 22.253906 27.144531 22.253906 L 26.285156 22.253906 L 26.171875 22.257812 C 25.613281 22.316406 25.175781 22.789062 25.175781 23.363281 C 25.175781 23.980469 25.671875 24.476562 26.285156 24.476562 L 27.144531 24.476562 L 27.308594 24.472656 C 28.886719 24.394531 30.253906 23.214844 30.253906 21.363281 Z M 8.601562 22.222656 C 8.601562 19.109375 11.601562 17.109375 16 17.109375 C 20.398438 17.109375 23.398438 19.109375 23.398438 22.222656 C 23.398438 24.410156 21.945312 25.617188 20 25.617188 L 12 25.617188 C 10.054688 25.617188 8.601562 24.410156 8.601562 22.222656 Z M 21.175781 22.222656 C 21.175781 20.574219 19.316406 19.332031 16 19.332031 C 12.683594 19.332031 10.824219 20.574219 10.824219 22.222656 C 10.824219 23.082031 11.203125 23.398438 12 23.398438 L 20 23.398438 C 20.796875 23.398438 21.175781 23.082031 21.175781 22.222656 Z M 22.667969 7.394531 C 22.054688 7.394531 21.554688 7.894531 21.554688 8.507812 C 21.554688 9.082031 21.992188 9.554688 22.554688 9.613281 L 22.667969 9.617188 C 23.632812 9.617188 24.414062 10.398438 24.414062 11.363281 C 24.414062 12.285156 23.699219 13.039062 22.796875 13.105469 L 22.667969 13.109375 C 22.054688 13.109375 21.554688 13.605469 21.554688 14.222656 C 21.554688 14.835938 22.054688 15.332031 22.667969 15.332031 C 24.859375 15.332031 26.636719 13.554688 26.636719 11.363281 C 26.636719 9.171875 24.859375 7.394531 22.667969 7.394531 Z M 22.667969 7.394531 " fill="#000000"/>
</svg>
