<svg
    xmlns="http://www.w3.org/2000/svg"
    viewBox="0 0 126 126"
    id="vector">
    <path
        id="path"
        d="M 98.6 75.8 C 98.4 96.6 80.1 119.2 59.7 123.6 C 43.4 127.2 31 117.1 31.4 100.6 C 31.9 79.5 50.1 57.6 70.7 53.1 C 86.9 49.5 98.7 59.1 98.6 75.8 Z M 41.5 111.7 C 48.2 114 53.8 113.7 57.4 109.2 C 61.7 103.9 65.4 97.8 68.3 91.6 C 73.2 81.4 75.7 69.6 90 66.5 C 81.1 63 72.8 65.1 67.5 73 C 63.3 79.2 60 86.3 57.2 93.3 C 54.3 100.9 50.7 107.7 41.5 111.7 Z"
        fill="#000000"/>
    <path
        id="path_1"
        d="M 50.2 56.3 C 45.2 50.2 40.3 44.1 35.2 38.2 C 29.7 31.8 26.1 24.8 28.3 15.5 C 22.2 19.9 19.6 26.9 22.9 34.1 C 26 41 30.7 47.1 35.1 53.3 C 37.4 56.6 40.4 59.5 42.8 62.2 C 38.2 68.6 34.2 74.4 29.8 80.6 C 21 75.1 15 67.1 11 57.6 C 6.6 47.3 4.6 36.6 7.8 25.5 C 12.3 9.9 25.9 3.6 40.2 11 C 54.8 18.6 62.2 31.8 65.8 47.3 C 66 48.3 64.7 50.3 63.6 50.8 C 59.4 52.7 54.8 54.4 50.2 56.3 Z"
        fill="#000000"/>
    <path
        id="path_2"
        d="M 77.8 21.2 C 77.9 8.8 87.7 1.6 99.4 5.4 C 110.4 8.9 119.5 20.8 120 32.3 C 120.5 45.7 109.4 53.5 96.9 48.5 C 85.6 44 77.7 32.8 77.8 21.2 Z M 89.5 10.1 C 86.4 14.1 86 18.5 88.8 22.4 C 91.3 25.8 94.6 28.8 98.1 31.2 C 102.8 34.6 107.7 37.6 109.1 44.2 C 112.4 39.3 112.4 35.4 108.4 31.4 C 105.4 28.3 101.8 25.8 98.3 23.3 C 93.7 20 89.7 16.4 89.5 10.1 Z"
        fill="#000000"/>
</svg>
